<?xml version="1.0" encoding="UTF-8" standalone="no"?>
<!-- Created with Inkscape (http://www.inkscape.org/) -->

<svg
   width="31.905457mm"
   height="31.90546mm"
   viewBox="0 0 31.905457 31.90546"
   version="1.1"
   id="svg1"
   xml:space="preserve"
   xmlns="http://www.w3.org/2000/svg"
   xmlns:svg="http://www.w3.org/2000/svg"><defs
     id="defs1" /><g
     id="layer1"
     transform="translate(-80.64132,-71.436595)"><g
       id="g3"><rect
         style="fill:none;fill-opacity:1;stroke-width:0.312798"
         id="rect4"
         width="31.905462"
         height="31.905462"
         x="80.641319"
         y="71.436584"
         rx="0"
         ry="0" /><rect
         style="fill:#c1ff30;fill-opacity:1;stroke-width:0.218652"
         id="rect3"
         width="22.302496"
         height="22.302496"
         x="85.44281"
         y="76.238075"
         rx="0"
         ry="0" /><path
         style="fill:#683084;fill-opacity:1;stroke:none;stroke-width:0.122767"
         d="m 91.803897,89.224725 c -0.97812,-0.97811 -1.50313,-2.22347 -1.10732,-3.6055 0.10098,-0.352586 0.28715,-0.654062 0.45768,-0.97446 -0.27318,0.201204 -0.46269,0.554782 -0.63095,0.844532 -0.46216,0.795874 -0.77303,1.65317 -0.89994,2.566076 -0.5678,4.084372 2.80494,7.977564 6.98786,7.7944 2.75246,-0.12052 5.214163,-1.86272 6.190253,-4.448754 1.34969,-3.57586 -0.72,-8.188094 -4.631113,-8.997512 0.56779,-1.678384 2.129403,-2.844774 3.897833,-2.922102 0.54259,-0.02372 1.0395,0.13836 1.55913,0.258578 -0.29474,-0.244176 -0.77346,-0.355862 -1.13686,-0.45931 -1.00032,-0.28475 -2.04727,-0.42627 -3.085783,-0.325772 -3.60947,0.349294 -6.71236,2.85282 -7.56069,6.43695 -0.3102,1.310554 -0.20996,2.51764 -0.0401,3.832874 m 7.69823,-2.241256 c -1.22516,-0.863024 -1.9326,-2.922102 -1.39673,-4.352588 0.38687,0.14662 0.71705,0.493824 0.96762,0.81205 0.75304,0.956334 1.019143,2.432638 0.42911,3.540538 m -8.34787,-2.403668 0.0325,0.03248 -0.0325,-0.03248 m 8.64021,4.199576 c 1.538813,-0.19988 1.766413,2.170772 0.227383,2.352462 -1.485313,0.17534 -1.710203,-2.159862 -0.227383,-2.352462 m -5.87924,2.372362 c 1.50373,-0.251106 1.96519,2.065322 0.45475,2.31755 -1.49331,0.249364 -1.95778,-2.066562 -0.45475,-2.31755 z"
         id="path1" /></g></g></svg>
